# xmcd
#
# Track frame offsets: 
#        150
#        17565
#        28769
#        44598
#        53768
#        69544
#        80531
#        90839
#        104596
#        117257
#        130720
#
# Disc length: 1918 seconds
#
# Revision: 0
# Processed by: cddbd v1.5.1PL2 Copyright (c) Steve Scherf et al.
# Submitted via: ExactAudioCopy v0.95a4
#
DISCID=89077c0b
DTITLE=Eddie Spaghetti - Old No. 2
DYEAR=2005
DGENRE=
TTITLE0=Tonight I'll Be Staying Here With You
TTITLE1=All Along
TTITLE2=Some People Say
TTITLE3=Without Love
TTITLE4=Carry Me Home
TTITLE5=Hey Sexy
TTITLE6=I Don't Wanna Know
TTITLE7=Here We Go
TTITLE8=I Don't Wanna Grow Up
TTITLE9=Everywhere I Go
TTITLE10=Sick As A Dog (by Quattro)
EXTD=
EXTT0=
EXTT1=
EXTT2=
EXTT3=
EXTT4=
EXTT5=
EXTT6=
EXTT7=
EXTT8=
EXTT9=
EXTT10=
PLAYORDER=
